<?xml version="1.0" encoding="utf-8"?>
<!-- Generator: Adobe Illustrator 23.0.2, SVG Export Plug-In . SVG Version: 6.00 Build 0)  -->
<svg version="1.1" id="Layer_1" xmlns="http://www.w3.org/2000/svg" xmlns:xlink="http://www.w3.org/1999/xlink" x="0px" y="0px"
	 viewBox="0 0 306.58 265.64" style="enable-background:new 0 0 306.58 265.64;" xml:space="preserve">
<style type="text/css">
	.st0{fill:none;stroke:#32618B;stroke-linecap:round;stroke-linejoin:round;stroke-miterlimit:10;}
	.st1{fill:none;stroke:#32618B;stroke-width:0.5;stroke-linecap:round;stroke-linejoin:round;stroke-miterlimit:10;}
</style>
<g>
	<polygon class="st0" points="153.29,0.5 306.08,265.14 0.5,265.14 	"/>
</g>
<g>
	<line class="st1" x1="8.14" y1="251.91" x2="160.93" y2="13.73"/>
	<line class="st1" x1="15.78" y1="238.68" x2="168.57" y2="26.96"/>
	<line class="st1" x1="23.42" y1="225.44" x2="176.21" y2="40.2"/>
	<line class="st1" x1="31.06" y1="212.21" x2="183.85" y2="53.43"/>
	<line class="st1" x1="38.7" y1="198.98" x2="191.49" y2="66.66"/>
	<line class="st1" x1="199.13" y1="79.89" x2="46.34" y2="185.75"/>
	<line class="st1" x1="53.98" y1="172.51" x2="206.77" y2="93.12"/>
	<line class="st1" x1="214.41" y1="106.36" x2="61.61" y2="159.29"/>
	<line class="st1" x1="69.26" y1="146.05" x2="222.05" y2="119.59"/>
	<line class="st1" x1="229.69" y1="132.82" x2="76.89" y2="132.82"/>
	<line class="st1" x1="84.54" y1="119.59" x2="237.33" y2="146.05"/>
	<line class="st1" x1="244.96" y1="159.28" x2="92.17" y2="106.36"/>
	<line class="st1" x1="100.15" y1="93.7" x2="252.93" y2="173.09"/>
	<line class="st1" x1="260.24" y1="185.75" x2="107.46" y2="79.89"/>
	<line class="st1" x1="115.09" y1="66.66" x2="267.88" y2="198.98"/>
	<line class="st1" x1="275.52" y1="212.21" x2="122.73" y2="53.43"/>
	<line class="st1" x1="130.37" y1="40.2" x2="283.16" y2="225.44"/>
	<line class="st1" x1="290.8" y1="238.68" x2="138.01" y2="26.97"/>
	<line class="st1" x1="145.65" y1="13.73" x2="298.44" y2="251.9"/>
</g>
</svg>
